<mxfile host="app.diagrams.net" agent="Mozilla/5.0 (Windows NT 10.0; Win64; x64) AppleWebKit/537.36 (KHTML, like Gecko) Chrome/133.0.0.0 Safari/537.36 OPR/118.0.0.0" version="26.2.14">
  <diagram name="Sayfa -1" id="KLiLc5vAUubbsRQLizZz">
    <mxGraphModel dx="1979" dy="1080" grid="1" gridSize="10" guides="1" tooltips="1" connect="1" arrows="1" fold="1" page="1" pageScale="1" pageWidth="1169" pageHeight="1654" math="0" shadow="0">
      <root>
        <mxCell id="0" />
        <mxCell id="1" parent="0" />
        <mxCell id="mDHxfYU0JQhifHVUSU3j-7" value="Zoo" style="swimlane;whiteSpace=wrap;html=1;" vertex="1" parent="1">
          <mxGeometry x="420" y="20" width="190" height="200" as="geometry" />
        </mxCell>
        <mxCell id="mDHxfYU0JQhifHVUSU3j-2" value="+ typeName: string&lt;br&gt;+ weight: double&lt;br&gt;+ age: int" style="text;html=1;align=left;verticalAlign=middle;whiteSpace=wrap;rounded=0;" vertex="1" parent="mDHxfYU0JQhifHVUSU3j-7">
          <mxGeometry x="10" y="50" width="110" height="30" as="geometry" />
        </mxCell>
        <mxCell id="mDHxfYU0JQhifHVUSU3j-4" value="+ getDosage(): int&lt;br&gt;+ getFeedSchedule(); string" style="text;html=1;align=left;verticalAlign=middle;whiteSpace=wrap;rounded=0;" vertex="1" parent="mDHxfYU0JQhifHVUSU3j-7">
          <mxGeometry x="10" y="150" width="175" height="10" as="geometry" />
        </mxCell>
        <mxCell id="mDHxfYU0JQhifHVUSU3j-10" style="edgeStyle=orthogonalEdgeStyle;rounded=0;orthogonalLoop=1;jettySize=auto;html=1;exitX=0.5;exitY=1;exitDx=0;exitDy=0;" edge="1" parent="mDHxfYU0JQhifHVUSU3j-7" source="mDHxfYU0JQhifHVUSU3j-4" target="mDHxfYU0JQhifHVUSU3j-4">
          <mxGeometry relative="1" as="geometry" />
        </mxCell>
        <mxCell id="mDHxfYU0JQhifHVUSU3j-11" value="------------------------------------------" style="text;html=1;align=center;verticalAlign=middle;whiteSpace=wrap;rounded=0;" vertex="1" parent="mDHxfYU0JQhifHVUSU3j-7">
          <mxGeometry x="10" y="100" width="170" height="30" as="geometry" />
        </mxCell>
        <mxCell id="mDHxfYU0JQhifHVUSU3j-46" style="edgeStyle=orthogonalEdgeStyle;rounded=0;orthogonalLoop=1;jettySize=auto;html=1;exitX=0.5;exitY=1;exitDx=0;exitDy=0;" edge="1" parent="mDHxfYU0JQhifHVUSU3j-7" source="mDHxfYU0JQhifHVUSU3j-4" target="mDHxfYU0JQhifHVUSU3j-4">
          <mxGeometry relative="1" as="geometry" />
        </mxCell>
        <mxCell id="mDHxfYU0JQhifHVUSU3j-88" style="edgeStyle=orthogonalEdgeStyle;rounded=0;orthogonalLoop=1;jettySize=auto;html=1;" edge="1" parent="1" source="mDHxfYU0JQhifHVUSU3j-17">
          <mxGeometry relative="1" as="geometry">
            <mxPoint x="135" y="260" as="targetPoint" />
          </mxGeometry>
        </mxCell>
        <mxCell id="mDHxfYU0JQhifHVUSU3j-17" value="Horses" style="swimlane;fontStyle=0;childLayout=stackLayout;horizontal=1;startSize=30;horizontalStack=0;resizeParent=1;resizeParentMax=0;resizeLast=0;collapsible=1;marginBottom=0;whiteSpace=wrap;html=1;" vertex="1" parent="1">
          <mxGeometry x="60" y="320" width="150" height="90" as="geometry" />
        </mxCell>
        <mxCell id="mDHxfYU0JQhifHVUSU3j-18" value="+ getDosage(); int" style="text;strokeColor=none;fillColor=none;align=left;verticalAlign=middle;spacingLeft=4;spacingRight=4;overflow=hidden;points=[[0,0.5],[1,0.5]];portConstraint=eastwest;rotatable=0;whiteSpace=wrap;html=1;" vertex="1" parent="mDHxfYU0JQhifHVUSU3j-17">
          <mxGeometry y="30" width="150" height="30" as="geometry" />
        </mxCell>
        <mxCell id="mDHxfYU0JQhifHVUSU3j-20" value="+ getFeedSchedule(): int" style="text;strokeColor=none;fillColor=none;align=left;verticalAlign=middle;spacingLeft=4;spacingRight=4;overflow=hidden;points=[[0,0.5],[1,0.5]];portConstraint=eastwest;rotatable=0;whiteSpace=wrap;html=1;" vertex="1" parent="mDHxfYU0JQhifHVUSU3j-17">
          <mxGeometry y="60" width="150" height="30" as="geometry" />
        </mxCell>
        <mxCell id="mDHxfYU0JQhifHVUSU3j-36" value="Horse" style="swimlane;fontStyle=0;childLayout=stackLayout;horizontal=1;startSize=30;horizontalStack=0;resizeParent=1;resizeParentMax=0;resizeLast=0;collapsible=1;marginBottom=0;whiteSpace=wrap;html=1;" vertex="1" parent="1">
          <mxGeometry x="60" y="600" width="200" height="90" as="geometry" />
        </mxCell>
        <mxCell id="mDHxfYU0JQhifHVUSU3j-37" value="+ getDosage(); int" style="text;strokeColor=none;fillColor=none;align=left;verticalAlign=middle;spacingLeft=4;spacingRight=4;overflow=hidden;points=[[0,0.5],[1,0.5]];portConstraint=eastwest;rotatable=0;whiteSpace=wrap;html=1;" vertex="1" parent="mDHxfYU0JQhifHVUSU3j-36">
          <mxGeometry y="30" width="200" height="30" as="geometry" />
        </mxCell>
        <mxCell id="mDHxfYU0JQhifHVUSU3j-38" value="+ getFeedSchedule;() string" style="text;strokeColor=none;fillColor=none;align=left;verticalAlign=middle;spacingLeft=4;spacingRight=4;overflow=hidden;points=[[0,0.5],[1,0.5]];portConstraint=eastwest;rotatable=0;whiteSpace=wrap;html=1;" vertex="1" parent="mDHxfYU0JQhifHVUSU3j-36">
          <mxGeometry y="60" width="200" height="30" as="geometry" />
        </mxCell>
        <mxCell id="mDHxfYU0JQhifHVUSU3j-41" value="Lions" style="swimlane;fontStyle=0;childLayout=stackLayout;horizontal=1;startSize=30;horizontalStack=0;resizeParent=1;resizeParentMax=0;resizeLast=0;collapsible=1;marginBottom=0;whiteSpace=wrap;html=1;" vertex="1" parent="1">
          <mxGeometry x="440" y="580" width="160" height="90" as="geometry" />
        </mxCell>
        <mxCell id="mDHxfYU0JQhifHVUSU3j-42" value="+ getDosage(); int" style="text;strokeColor=none;fillColor=none;align=left;verticalAlign=middle;spacingLeft=4;spacingRight=4;overflow=hidden;points=[[0,0.5],[1,0.5]];portConstraint=eastwest;rotatable=0;whiteSpace=wrap;html=1;" vertex="1" parent="mDHxfYU0JQhifHVUSU3j-41">
          <mxGeometry y="30" width="160" height="30" as="geometry" />
        </mxCell>
        <mxCell id="mDHxfYU0JQhifHVUSU3j-43" value="+ getFeedSchedule;() string" style="text;strokeColor=none;fillColor=none;align=left;verticalAlign=middle;spacingLeft=4;spacingRight=4;overflow=hidden;points=[[0,0.5],[1,0.5]];portConstraint=eastwest;rotatable=0;whiteSpace=wrap;html=1;" vertex="1" parent="mDHxfYU0JQhifHVUSU3j-41">
          <mxGeometry y="60" width="160" height="30" as="geometry" />
        </mxCell>
        <mxCell id="mDHxfYU0JQhifHVUSU3j-87" style="edgeStyle=orthogonalEdgeStyle;rounded=0;orthogonalLoop=1;jettySize=auto;html=1;" edge="1" parent="1" source="mDHxfYU0JQhifHVUSU3j-47">
          <mxGeometry relative="1" as="geometry">
            <mxPoint x="510" y="260" as="targetPoint" />
          </mxGeometry>
        </mxCell>
        <mxCell id="mDHxfYU0JQhifHVUSU3j-47" value="Cats" style="swimlane;fontStyle=0;childLayout=stackLayout;horizontal=1;startSize=30;horizontalStack=0;resizeParent=1;resizeParentMax=0;resizeLast=0;collapsible=1;marginBottom=0;whiteSpace=wrap;html=1;" vertex="1" parent="1">
          <mxGeometry x="430" y="320" width="160" height="90" as="geometry" />
        </mxCell>
        <mxCell id="mDHxfYU0JQhifHVUSU3j-48" value="+ getDosage(); int" style="text;strokeColor=none;fillColor=none;align=left;verticalAlign=middle;spacingLeft=4;spacingRight=4;overflow=hidden;points=[[0,0.5],[1,0.5]];portConstraint=eastwest;rotatable=0;whiteSpace=wrap;html=1;" vertex="1" parent="mDHxfYU0JQhifHVUSU3j-47">
          <mxGeometry y="30" width="160" height="30" as="geometry" />
        </mxCell>
        <mxCell id="mDHxfYU0JQhifHVUSU3j-49" value="+ getFeedSchedule;() string" style="text;strokeColor=none;fillColor=none;align=left;verticalAlign=middle;spacingLeft=4;spacingRight=4;overflow=hidden;points=[[0,0.5],[1,0.5]];portConstraint=eastwest;rotatable=0;whiteSpace=wrap;html=1;" vertex="1" parent="mDHxfYU0JQhifHVUSU3j-47">
          <mxGeometry y="60" width="160" height="30" as="geometry" />
        </mxCell>
        <mxCell id="mDHxfYU0JQhifHVUSU3j-86" style="edgeStyle=orthogonalEdgeStyle;rounded=0;orthogonalLoop=1;jettySize=auto;html=1;" edge="1" parent="1" source="mDHxfYU0JQhifHVUSU3j-51">
          <mxGeometry relative="1" as="geometry">
            <mxPoint x="890" y="260" as="targetPoint" />
          </mxGeometry>
        </mxCell>
        <mxCell id="mDHxfYU0JQhifHVUSU3j-51" value="Rodents" style="swimlane;fontStyle=0;childLayout=stackLayout;horizontal=1;startSize=30;horizontalStack=0;resizeParent=1;resizeParentMax=0;resizeLast=0;collapsible=1;marginBottom=0;whiteSpace=wrap;html=1;" vertex="1" parent="1">
          <mxGeometry x="810" y="320" width="160" height="90" as="geometry" />
        </mxCell>
        <mxCell id="mDHxfYU0JQhifHVUSU3j-53" value="+ getDosage(); int" style="text;strokeColor=none;fillColor=none;align=left;verticalAlign=middle;spacingLeft=4;spacingRight=4;overflow=hidden;points=[[0,0.5],[1,0.5]];portConstraint=eastwest;rotatable=0;whiteSpace=wrap;html=1;" vertex="1" parent="mDHxfYU0JQhifHVUSU3j-51">
          <mxGeometry y="30" width="160" height="30" as="geometry" />
        </mxCell>
        <mxCell id="mDHxfYU0JQhifHVUSU3j-54" value="+ getFeedSchedule;() string" style="text;strokeColor=none;fillColor=none;align=left;verticalAlign=middle;spacingLeft=4;spacingRight=4;overflow=hidden;points=[[0,0.5],[1,0.5]];portConstraint=eastwest;rotatable=0;whiteSpace=wrap;html=1;" vertex="1" parent="mDHxfYU0JQhifHVUSU3j-51">
          <mxGeometry y="60" width="160" height="30" as="geometry" />
        </mxCell>
        <mxCell id="mDHxfYU0JQhifHVUSU3j-55" value="Rat" style="swimlane;fontStyle=0;childLayout=stackLayout;horizontal=1;startSize=30;horizontalStack=0;resizeParent=1;resizeParentMax=0;resizeLast=0;collapsible=1;marginBottom=0;whiteSpace=wrap;html=1;" vertex="1" parent="1">
          <mxGeometry x="820" y="580" width="160" height="90" as="geometry" />
        </mxCell>
        <mxCell id="mDHxfYU0JQhifHVUSU3j-56" value="+ getDosage(); int" style="text;strokeColor=none;fillColor=none;align=left;verticalAlign=middle;spacingLeft=4;spacingRight=4;overflow=hidden;points=[[0,0.5],[1,0.5]];portConstraint=eastwest;rotatable=0;whiteSpace=wrap;html=1;" vertex="1" parent="mDHxfYU0JQhifHVUSU3j-55">
          <mxGeometry y="30" width="160" height="30" as="geometry" />
        </mxCell>
        <mxCell id="mDHxfYU0JQhifHVUSU3j-57" value="+ getFeedSchedule;() string" style="text;strokeColor=none;fillColor=none;align=left;verticalAlign=middle;spacingLeft=4;spacingRight=4;overflow=hidden;points=[[0,0.5],[1,0.5]];portConstraint=eastwest;rotatable=0;whiteSpace=wrap;html=1;" vertex="1" parent="mDHxfYU0JQhifHVUSU3j-55">
          <mxGeometry y="60" width="160" height="30" as="geometry" />
        </mxCell>
        <mxCell id="mDHxfYU0JQhifHVUSU3j-59" value="Beaver" style="swimlane;fontStyle=0;childLayout=stackLayout;horizontal=1;startSize=30;horizontalStack=0;resizeParent=1;resizeParentMax=0;resizeLast=0;collapsible=1;marginBottom=0;whiteSpace=wrap;html=1;" vertex="1" parent="1">
          <mxGeometry x="820" y="737" width="160" height="90" as="geometry" />
        </mxCell>
        <mxCell id="mDHxfYU0JQhifHVUSU3j-60" value="+ getDosage(); int" style="text;strokeColor=none;fillColor=none;align=left;verticalAlign=middle;spacingLeft=4;spacingRight=4;overflow=hidden;points=[[0,0.5],[1,0.5]];portConstraint=eastwest;rotatable=0;whiteSpace=wrap;html=1;" vertex="1" parent="mDHxfYU0JQhifHVUSU3j-59">
          <mxGeometry y="30" width="160" height="30" as="geometry" />
        </mxCell>
        <mxCell id="mDHxfYU0JQhifHVUSU3j-61" value="+ getFeedSchedule;() string" style="text;strokeColor=none;fillColor=none;align=left;verticalAlign=middle;spacingLeft=4;spacingRight=4;overflow=hidden;points=[[0,0.5],[1,0.5]];portConstraint=eastwest;rotatable=0;whiteSpace=wrap;html=1;" vertex="1" parent="mDHxfYU0JQhifHVUSU3j-59">
          <mxGeometry y="60" width="160" height="30" as="geometry" />
        </mxCell>
        <mxCell id="mDHxfYU0JQhifHVUSU3j-62" style="edgeStyle=orthogonalEdgeStyle;rounded=0;orthogonalLoop=1;jettySize=auto;html=1;entryX=0;entryY=0.5;entryDx=0;entryDy=0;" edge="1" parent="1" source="mDHxfYU0JQhifHVUSU3j-60" target="mDHxfYU0JQhifHVUSU3j-56">
          <mxGeometry relative="1" as="geometry">
            <Array as="points">
              <mxPoint x="790" y="782" />
              <mxPoint x="790" y="625" />
            </Array>
          </mxGeometry>
        </mxCell>
        <mxCell id="mDHxfYU0JQhifHVUSU3j-67" value="Tiger" style="swimlane;fontStyle=0;childLayout=stackLayout;horizontal=1;startSize=30;horizontalStack=0;resizeParent=1;resizeParentMax=0;resizeLast=0;collapsible=1;marginBottom=0;whiteSpace=wrap;html=1;" vertex="1" parent="1">
          <mxGeometry x="430" y="760" width="180" height="90" as="geometry" />
        </mxCell>
        <mxCell id="mDHxfYU0JQhifHVUSU3j-68" value="+ getDosage(); int" style="text;strokeColor=none;fillColor=none;align=left;verticalAlign=middle;spacingLeft=4;spacingRight=4;overflow=hidden;points=[[0,0.5],[1,0.5]];portConstraint=eastwest;rotatable=0;whiteSpace=wrap;html=1;" vertex="1" parent="mDHxfYU0JQhifHVUSU3j-67">
          <mxGeometry y="30" width="180" height="30" as="geometry" />
        </mxCell>
        <mxCell id="mDHxfYU0JQhifHVUSU3j-69" value="+ getFeedSchedule;() string" style="text;strokeColor=none;fillColor=none;align=left;verticalAlign=middle;spacingLeft=4;spacingRight=4;overflow=hidden;points=[[0,0.5],[1,0.5]];portConstraint=eastwest;rotatable=0;whiteSpace=wrap;html=1;" vertex="1" parent="mDHxfYU0JQhifHVUSU3j-67">
          <mxGeometry y="60" width="180" height="30" as="geometry" />
        </mxCell>
        <mxCell id="mDHxfYU0JQhifHVUSU3j-71" style="edgeStyle=orthogonalEdgeStyle;rounded=0;orthogonalLoop=1;jettySize=auto;html=1;entryX=0;entryY=0.5;entryDx=0;entryDy=0;" edge="1" parent="1" source="mDHxfYU0JQhifHVUSU3j-68" target="mDHxfYU0JQhifHVUSU3j-42">
          <mxGeometry relative="1" as="geometry" />
        </mxCell>
        <mxCell id="mDHxfYU0JQhifHVUSU3j-72" value="Donkey" style="swimlane;fontStyle=0;childLayout=stackLayout;horizontal=1;startSize=30;horizontalStack=0;resizeParent=1;resizeParentMax=0;resizeLast=0;collapsible=1;marginBottom=0;whiteSpace=wrap;html=1;" vertex="1" parent="1">
          <mxGeometry x="75" y="737" width="170" height="90" as="geometry" />
        </mxCell>
        <mxCell id="mDHxfYU0JQhifHVUSU3j-81" style="edgeStyle=orthogonalEdgeStyle;rounded=0;orthogonalLoop=1;jettySize=auto;html=1;" edge="1" parent="mDHxfYU0JQhifHVUSU3j-72" source="mDHxfYU0JQhifHVUSU3j-73">
          <mxGeometry relative="1" as="geometry">
            <mxPoint x="245" y="-377" as="targetPoint" />
          </mxGeometry>
        </mxCell>
        <mxCell id="mDHxfYU0JQhifHVUSU3j-73" value="+ getDosage(); int" style="text;strokeColor=none;fillColor=none;align=left;verticalAlign=middle;spacingLeft=4;spacingRight=4;overflow=hidden;points=[[0,0.5],[1,0.5]];portConstraint=eastwest;rotatable=0;whiteSpace=wrap;html=1;" vertex="1" parent="mDHxfYU0JQhifHVUSU3j-72">
          <mxGeometry y="30" width="170" height="30" as="geometry" />
        </mxCell>
        <mxCell id="mDHxfYU0JQhifHVUSU3j-74" value="+ getFeedSchedule;() string" style="text;strokeColor=none;fillColor=none;align=left;verticalAlign=middle;spacingLeft=4;spacingRight=4;overflow=hidden;points=[[0,0.5],[1,0.5]];portConstraint=eastwest;rotatable=0;whiteSpace=wrap;html=1;" vertex="1" parent="mDHxfYU0JQhifHVUSU3j-72">
          <mxGeometry y="60" width="170" height="30" as="geometry" />
        </mxCell>
        <mxCell id="mDHxfYU0JQhifHVUSU3j-75" value="Zebra" style="swimlane;fontStyle=0;childLayout=stackLayout;horizontal=1;startSize=30;horizontalStack=0;resizeParent=1;resizeParentMax=0;resizeLast=0;collapsible=1;marginBottom=0;whiteSpace=wrap;html=1;" vertex="1" parent="1">
          <mxGeometry x="60" y="860" width="200" height="90" as="geometry" />
        </mxCell>
        <mxCell id="mDHxfYU0JQhifHVUSU3j-76" value="+ getDosage(); int" style="text;strokeColor=none;fillColor=none;align=left;verticalAlign=middle;spacingLeft=4;spacingRight=4;overflow=hidden;points=[[0,0.5],[1,0.5]];portConstraint=eastwest;rotatable=0;whiteSpace=wrap;html=1;" vertex="1" parent="mDHxfYU0JQhifHVUSU3j-75">
          <mxGeometry y="30" width="200" height="30" as="geometry" />
        </mxCell>
        <mxCell id="mDHxfYU0JQhifHVUSU3j-77" value="+ getFeedSchedule;() string" style="text;strokeColor=none;fillColor=none;align=left;verticalAlign=middle;spacingLeft=4;spacingRight=4;overflow=hidden;points=[[0,0.5],[1,0.5]];portConstraint=eastwest;rotatable=0;whiteSpace=wrap;html=1;" vertex="1" parent="mDHxfYU0JQhifHVUSU3j-75">
          <mxGeometry y="60" width="200" height="30" as="geometry" />
        </mxCell>
        <mxCell id="mDHxfYU0JQhifHVUSU3j-80" style="edgeStyle=orthogonalEdgeStyle;rounded=0;orthogonalLoop=1;jettySize=auto;html=1;entryX=0;entryY=0.5;entryDx=0;entryDy=0;" edge="1" parent="1" source="mDHxfYU0JQhifHVUSU3j-76" target="mDHxfYU0JQhifHVUSU3j-37">
          <mxGeometry relative="1" as="geometry" />
        </mxCell>
        <mxCell id="mDHxfYU0JQhifHVUSU3j-82" value="" style="endArrow=classic;html=1;rounded=0;" edge="1" parent="1">
          <mxGeometry width="50" height="50" relative="1" as="geometry">
            <mxPoint x="320" y="365" as="sourcePoint" />
            <mxPoint x="210" y="364.5" as="targetPoint" />
            <Array as="points">
              <mxPoint x="240" y="364.5" />
            </Array>
          </mxGeometry>
        </mxCell>
        <mxCell id="mDHxfYU0JQhifHVUSU3j-83" value="" style="curved=1;endArrow=classic;html=1;rounded=0;entryX=0;entryY=0.5;entryDx=0;entryDy=0;" edge="1" parent="1" target="mDHxfYU0JQhifHVUSU3j-48">
          <mxGeometry width="50" height="50" relative="1" as="geometry">
            <mxPoint x="410" y="720" as="sourcePoint" />
            <mxPoint x="400" y="680" as="targetPoint" />
            <Array as="points">
              <mxPoint x="400" y="730" />
              <mxPoint x="350" y="680" />
              <mxPoint x="350" y="380" />
            </Array>
          </mxGeometry>
        </mxCell>
        <mxCell id="mDHxfYU0JQhifHVUSU3j-84" value="" style="curved=1;endArrow=classic;html=1;rounded=0;entryX=0;entryY=0.5;entryDx=0;entryDy=0;" edge="1" parent="1">
          <mxGeometry width="50" height="50" relative="1" as="geometry">
            <mxPoint x="790" y="725" as="sourcePoint" />
            <mxPoint x="810" y="370" as="targetPoint" />
            <Array as="points">
              <mxPoint x="780" y="735" />
              <mxPoint x="730" y="685" />
              <mxPoint x="730" y="385" />
            </Array>
          </mxGeometry>
        </mxCell>
        <mxCell id="mDHxfYU0JQhifHVUSU3j-85" value="" style="endArrow=none;html=1;rounded=0;" edge="1" parent="1">
          <mxGeometry width="50" height="50" relative="1" as="geometry">
            <mxPoint x="120" y="260" as="sourcePoint" />
            <mxPoint x="1000" y="260" as="targetPoint" />
            <Array as="points">
              <mxPoint x="180" y="260" />
            </Array>
          </mxGeometry>
        </mxCell>
        <mxCell id="mDHxfYU0JQhifHVUSU3j-89" value="" style="endArrow=classic;html=1;rounded=0;" edge="1" parent="1">
          <mxGeometry width="50" height="50" relative="1" as="geometry">
            <mxPoint x="509.5" y="260" as="sourcePoint" />
            <mxPoint x="509.5" y="220" as="targetPoint" />
          </mxGeometry>
        </mxCell>
      </root>
    </mxGraphModel>
  </diagram>
</mxfile>
